HIERARCHY
ROOT joint_Root
{
  OFFSET 0 0 0
  CHANNELS 6 Xposition Yposition Zposition Zrotation Xrotation Yrotation
  JOINT Hips
  {
    OFFSET 0 93.9241 -3
    CHANNELS 6 Xposition Yposition Zposition Zrotation Xrotation Yrotation
    JOINT Spine
    {
      OFFSET 15.7357 0 0
      CHANNELS 6 Xposition Yposition Zposition Zrotation Xrotation Yrotation
      JOINT Chest
      {
        OFFSET 8.98455 -0.406207 0
        CHANNELS 6 Xposition Yposition Zposition Zrotation Xrotation Yrotation
        JOINT Neck
        {
          OFFSET 16.3773 0 0
          CHANNELS 6 Xposition Yposition Zposition Zrotation Xrotation Yrotation
          JOINT Head
          {
            OFFSET 6.45672 0 0
            CHANNELS 6 Xposition Yposition Zposition Zrotation Xrotation Yrotation
            End Site
            {
              OFFSET 0 0 0
            }
          }
        }
        JOINT Shoulder_L
        {
          OFFSET 12.9942 -0.242716 4.98039
          CHANNELS 6 Xposition Yposition Zposition Zrotation Xrotation Yrotation
          JOINT UpperArm_L
          {
            OFFSET 5.34809 0 0
            CHANNELS 6 Xposition Yposition Zposition Zrotation Xrotation Yrotation
            JOINT LowerArm_L
            {
              OFFSET 24.3286 1.87007e-05 0
              CHANNELS 6 Xposition Yposition Zposition Zrotation Xrotation Yrotation
              JOINT Hand_L
              {
                OFFSET 22.2916 0 0
                CHANNELS 6 Xposition Yposition Zposition Zrotation Xrotation Yrotation
                End Site
                {
                  OFFSET 0 0 0
                }
              }
            }
          }
        }
        JOINT Shoulder_R
        {
          OFFSET 12.9945 -0.242716 -4.98039
          CHANNELS 6 Xposition Yposition Zposition Zrotation Xrotation Yrotation
          JOINT UpperArm_R
          {
            OFFSET -5.34813 0 0
            CHANNELS 6 Xposition Yposition Zposition Zrotation Xrotation Yrotation
            JOINT LowerArm_R
            {
              OFFSET -24.3289 0.000322201 0
              CHANNELS 6 Xposition Yposition Zposition Zrotation Xrotation Yrotation
              JOINT Hand_R
              {
                OFFSET -22.2915 -0.000108084 0
                CHANNELS 6 Xposition Yposition Zposition Zrotation Xrotation Yrotation
                End Site
                {
                  OFFSET 0 0 0
                }
              }
            }
          }
        }
      }
    }
    JOINT UpperLeg_L
    {
      OFFSET -2.19248 -6.46944 0
      CHANNELS 6 Xposition Yposition Zposition Zrotation Xrotation Yrotation
      JOINT LowerLeg_L
      {
        OFFSET 39.0811 0 -1.23785e-05
        CHANNELS 6 Xposition Yposition Zposition Zrotation Xrotation Yrotation
        JOINT Foot_L
        {
          OFFSET 40.9854 0 -1.26872e-05
          CHANNELS 6 Xposition Yposition Zposition Zrotation Xrotation Yrotation
          JOINT Toes_L
          {
            OFFSET 11.7543 0 0
            CHANNELS 6 Xposition Yposition Zposition Zrotation Xrotation Yrotation
            End Site
            {
              OFFSET 0 0 0
            }
          }
        }
      }
    }
    JOINT UpperLeg_R
    {
      OFFSET -2.19251 6.46944 0
      CHANNELS 6 Xposition Yposition Zposition Zrotation Xrotation Yrotation
      JOINT LowerLeg_R
      {
        OFFSET -39.0811 -0.00228153 -0.0401928
        CHANNELS 6 Xposition Yposition Zposition Zrotation Xrotation Yrotation
        JOINT Foot_R
        {
          OFFSET -40.9854 0 0
          CHANNELS 6 Xposition Yposition Zposition Zrotation Xrotation Yrotation
          JOINT Toes_R
          {
            OFFSET -11.7543 0 0
            CHANNELS 6 Xposition Yposition Zposition Zrotation Xrotation Yrotation
            End Site
            {
              OFFSET 0 0 0
            }
          }
        }
      }
    }
  }
}
MOTION
Frames:	6
Frame Time:	0.0333333
0 0 0 0 0 -0 -1.70935 90.4904 -11.2245 86.8321 -4.83805 12.1522 15.7357 5.1072e-06 -5.51765e-07 98.9031 80.4238 -98.0008 8.98455 -0.406207 -4.3199e-07 11.1435 2.96796 1.51443 16.3773 -1.3905e-06 -6.99897e-07 3.59877 0.561304 -1.2775 6.45672 -1.25837e-06 -1.02172e-07 17.833 -3.09992 -2.18956 12.9942 -0.242716 4.98039 -89.2055 -5.61186 -96.9283 5.34809 -7.22636e-06 -6.2814e-07 -75.7299 15.8571 -3.64704 24.3286 1.87007e-05 4.90208e-06 51.0669 -26.2762 -109.679 22.2916 -9.88446e-07 4.63217e-06 55.7353 5.59165 -10.8566 12.9945 -0.242716 -4.98039 90.2854 -6.08847 -102.311 -5.34813 -1.25947e-06 -3.79883e-06 -78.0534 17.7582 -6.69703 -24.3289 0.000322201 -8.65921e-06 48.111 -18.4697 -105.862 -22.2915 -0.000108084 -4.47941e-06 72.1192 5.66695 -16.9775 -2.19248 -6.46944 -1.22534e-07 -174.828 15.1005 -10.6972 39.0811 -6.73843e-06 -1.23785e-05 -0.00633959 0.0260446 32.1398 40.9854 -6.48686e-06 -1.26872e-05 -2.47462 10.1211 -60.6147 11.7543 -2.30145e-07 3.05095e-06 0.0512444 -0.0573724 -17.138 -2.19251 6.46944 -1.45247e-06 -169.834 -0.838843 -179.444 -39.0811 -0.00228153 -0.0401928 0.0844907 -0.0994997 28.6927 -40.9854 7.72618e-06 5.99936e-06 5.10266 -8.63799 -67.0362 -11.7543 -5.6619e-06 -5.58687e-06 0.00311029 -0.00322201 -16.5988 
0 0 0 0 0 -0 -1.71071 90.4842 -11.2583 86.7865 -4.87286 12.1869 15.7357 5.1072e-06 -5.51765e-07 98.9608 80.4562 -98.0482 8.98455 -0.406207 -4.3199e-07 11.0762 2.97686 1.536 16.3773 -1.3905e-06 -6.99897e-07 3.73831 0.552143 -1.25295 6.45672 -1.25837e-06 -1.02172e-07 17.963 -3.12706 -2.21462 12.9942 -0.242716 4.98039 -89.224 -5.4477 -96.8801 5.34809 -7.22636e-06 -6.2814e-07 -76.4428 14.428 -3.59638 24.3286 1.87007e-05 4.90208e-06 43.1981 -23.4812 -112.994 22.2916 -9.88446e-07 4.63217e-06 56.5381 5.52898 -7.79888 12.9945 -0.242716 -4.98039 90.2813 -5.96239 -102.294 -5.34813 -1.25947e-06 -3.79883e-06 -78.8613 17.4271 -6.41991 -24.3289 0.000322201 -8.65921e-06 37.3867 -15.7354 -109.54 -22.2915 -0.000108084 -4.47941e-06 71.6612 5.64329 -14.4398 -2.19248 -6.46944 -1.22534e-07 -174.775 15.0889 -10.6995 39.0811 -6.73843e-06 -1.23785e-05 -0.0072323 0.0258908 32.1816 40.9854 -6.48686e-06 -1.26872e-05 -2.48482 10.1338 -60.6164 11.7543 -2.30145e-07 3.05095e-06 0.0538106 -0.0602878 -17.1665 -2.19251 6.46944 -1.45247e-06 -169.802 -0.76774 -179.439 -39.0811 -0.00228153 -0.0401928 0.0843103 -0.0989743 28.7052 -40.9854 7.72618e-06 5.99936e-06 5.11821 -8.58958 -67.0202 -11.7543 -5.6619e-06 -5.58687e-06 -0.0030702 0.00244268 -16.5737 
0 0 0 0 0 -0 -1.71058 90.4821 -11.2918 86.7466 -4.91975 12.2142 15.7357 5.1072e-06 -5.51765e-07 99.051 80.4745 -98.1313 8.98455 -0.406207 -4.3199e-07 11.0353 3.00066 1.549 16.3773 -1.3905e-06 -6.99897e-07 3.78918 0.534749 -1.26042 6.45672 -1.25837e-06 -1.02172e-07 18.0438 -3.12453 -2.18689 12.9942 -0.242716 4.98039 -89.2242 -5.41706 -96.8376 5.34809 -7.22636e-06 -6.2814e-07 -77.1491 14.0907 -3.87755 24.3286 1.87007e-05 4.90208e-06 30.2089 -18.0579 -118.033 22.2916 -9.88446e-07 4.63217e-06 60.429 5.33958 -1.2057 12.9945 -0.242716 -4.98039 90.2887 -5.87748 -102.183 -5.34813 -1.25947e-06 -3.79883e-06 -79.5114 17.2087 -6.55304 -24.3289 0.000322201 -8.65921e-06 24.5333 -11.5008 -113.6 -22.2915 -0.000108084 -4.47941e-06 72.9003 5.57926 -10.1971 -2.19248 -6.46944 -1.22534e-07 -174.722 15.0891 -10.6885 39.0811 -6.73843e-06 -1.23785e-05 -0.00737032 0.0275521 32.1838 40.9854 -6.48686e-06 -1.26872e-05 -2.50828 10.1321 -60.6001 11.7543 -2.30145e-07 3.05095e-06 0.0526878 -0.0590039 -17.1539 -2.19251 6.46944 -1.45247e-06 -169.769 -0.73298 -179.427 -39.0811 -0.00228153 -0.0401928 0.087315 -0.104386 28.6972 -40.9854 7.72618e-06 5.99936e-06 5.13662 -8.52952 -66.9947 -11.7543 -5.6619e-06 -5.58687e-06 -0.00273559 0.0021686 -16.5738 
0 0 0 0 0 -0 -1.71799 90.4707 -11.3092 86.6895 -4.94931 12.2471 15.7357 5.1072e-06 -5.51765e-07 99.0917 80.4969 -98.148 8.98455 -0.406207 -4.3199e-07 10.9881 3.00734 1.59746 16.3773 -1.3905e-06 -6.99897e-07 3.8116 0.493089 -1.31251 6.45672 -1.25837e-06 -1.02172e-07 18.0171 -3.07687 -2.16291 12.9942 -0.242716 4.98039 -89.2318 -5.40079 -96.8915 5.34809 -7.22636e-06 -6.2814e-07 -77.4506 14.4199 -3.8493 24.3286 1.87007e-05 4.90208e-06 23.8779 -14.9587 -120.246 22.2916 -9.88446e-07 4.63217e-06 64.8862 5.19545 2.83293 12.9945 -0.242716 -4.98039 90.3028 -5.91493 -102.065 -5.34813 -1.25947e-06 -3.79883e-06 -79.6229 17.2895 -6.58087 -24.3289 0.000322201 -8.65921e-06 19.5307 -9.59427 -115.167 -22.2915 -0.000108084 -4.47941e-06 73.7252 5.53937 -8.21468 -2.19248 -6.46944 -1.22534e-07 -174.664 15.1552 -10.6924 39.0811 -6.73843e-06 -1.23785e-05 -0.00632285 0.0268535 32.259 40.9854 -6.48686e-06 -1.26872e-05 -2.53343 10.0886 -60.6376 11.7543 -2.30145e-07 3.05095e-06 0.0560557 -0.0628369 -17.1913 -2.19251 6.46944 -1.45247e-06 -169.708 -0.729897 -179.415 -39.0811 -0.00228153 -0.0401928 0.0871784 -0.103647 28.727 -40.9854 7.72618e-06 5.99936e-06 5.14248 -8.51209 -66.9968 -11.7543 -5.6619e-06 -5.58687e-06 0.0016339 -0.00168189 -16.5869 
0 0 0 0 0 -0 -1.71968 90.4855 -11.3189 86.6824 -5.00689 12.2259 15.7357 5.1072e-06 -5.51765e-07 98.8978 80.4779 -97.9868 8.98455 -0.406207 -4.3199e-07 11.0367 2.94942 1.53629 16.3773 -1.3905e-06 -6.99897e-07 3.65553 0.542861 -1.21784 6.45672 -1.25837e-06 -1.02172e-07 17.8634 -3.08414 -2.17265 12.9942 -0.242716 4.98039 -89.2176 -5.45181 -96.8209 5.34809 -7.22636e-06 -6.2814e-07 -77.2031 15.2492 -3.23154 24.3286 1.87007e-05 4.90208e-06 29.5939 -17.7665 -118.249 22.2916 -9.88446e-07 4.63217e-06 62.9767 5.26452 1.00425 12.9945 -0.242716 -4.98039 90.3008 -5.92253 -102.087 -5.34813 -1.25947e-06 -3.79883e-06 -79.142 17.7579 -6.2793 -24.3289 0.000322201 -8.65921e-06 26.5484 -12.379 -113.224 -22.2915 -0.000108084 -4.47941e-06 71.9772 5.58752 -10.662 -2.19248 -6.46944 -1.22534e-07 -174.647 15.1643 -10.6808 39.0811 -6.73843e-06 -1.23785e-05 -0.00873038 0.0279143 32.1893 40.9854 -6.48686e-06 -1.26872e-05 -2.56328 9.99003 -60.5946 11.7543 -2.30145e-07 3.05095e-06 0.0512743 -0.0574062 -17.1384 -2.19251 6.46944 -1.45247e-06 -169.688 -0.799181 -179.397 -39.0811 -0.00228153 -0.0401928 0.0895539 -0.108524 28.6438 -40.9854 7.72618e-06 5.99936e-06 5.1408 -8.53173 -66.9417 -11.7543 -5.6619e-06 -5.58687e-06 0.00508247 -0.00526083 -16.6146 
0 0 0 0 0 -0 -1.71919 90.4932 -11.3126 86.6896 -5.05677 12.2112 15.7357 5.1072e-06 -5.51765e-07 98.8669 80.4591 -97.9851 8.98455 -0.406207 -4.3199e-07 11.0763 2.94445 1.47754 16.3773 -1.3905e-06 -6.99897e-07 3.47195 0.527951 -1.20354 6.45672 -1.25837e-06 -1.02172e-07 17.816 -3.14521 -2.1056 12.9942 -0.242716 4.98039 -89.2252 -5.3735 -96.782 5.34809 -7.22636e-06 -6.2814e-07 -76.4988 16.4706 -2.45282 24.3286 1.87007e-05 4.90208e-06 38.6316 -21.8098 -114.933 22.2916 -9.88446e-07 4.63217e-06 57.9231 5.44173 -4.46835 12.9945 -0.242716 -4.98039 90.2938 -5.89021 -102.139 -5.34813 -1.25947e-06 -3.79883e-06 -78.5564 17.8633 -5.86611 -24.3289 0.000322201 -8.65921e-06 39.0405 -16.6258 -109.435 -22.2915 -0.000108084 -4.47941e-06 70.4277 5.64977 -14.9921 -2.19248 -6.46944 -1.22534e-07 -174.65 15.1475 -10.6571 39.0811 -6.73843e-06 -1.23785e-05 -0.00564843 0.0254892 32.1475 40.9854 -6.48686e-06 -1.26872e-05 -2.57719 9.91767 -60.5843 11.7543 -2.30145e-07 3.05095e-06 0.0505164 -0.0565524 -17.1302 -2.19251 6.46944 -1.45247e-06 -169.683 -0.838284 -179.379 -39.0811 -0.00228153 -0.0401928 0.0906569 -0.110827 28.6001 -40.9854 7.72618e-06 5.99936e-06 5.15252 -8.51062 -66.9234 -11.7543 -5.6619e-06 -5.58687e-06 0.00462859 -0.00479902 -16.611 
